#N canvas 721 331 450 300 10;
#X obj 88 1 phasor~;
#X obj 85 40 bp~ 650 120;
#X obj 152 93 *~;
#X msg 219 9 10 1000 \, 0.5 50 450 \, 0 1000 100;
#X obj 224 51 vline~;
#X obj 168 42 osc~;
#X obj 140 -41 inlet;
#X obj 151 136 outlet~;
#X connect 0 0 1 0;
#X connect 1 0 2 0;
#X connect 2 0 7 0;
#X connect 3 0 4 0;
#X connect 4 0 2 1;
#X connect 5 0 2 0;
#X connect 6 0 0 0;
#X connect 6 0 5 0;
#X connect 6 0 3 0;
