#N canvas 721 331 514 397 10;
#X obj 235 5 inlet;
#X obj 250 335 outlet~;
#X obj 108 163 *~;
#X obj 147 74 bng 15 250 50 0 empty empty empty 17 7 0 10 -262144 -1
-1;
#X obj 148 100 t b b;
#X obj 147 126 del 30;
#X msg 146 152 0;
#X obj 149 180 tgl 15 0 empty empty empty 17 7 0 10 -262144 -1 -1 0
1;
#X msg 211 132 1;
#X obj 110 279 delwrite~ note 500;
#X floatatom 246 130 5 0 0 0 - - -, f 5;
#X obj 371 98 vsl 15 128 1200 2500 0 0 empty empty empty 0 -9 0 10
-262144 -1 -1 0 1;
#X floatatom 357 241 5 0 0 0 - - -, f 5;
#X obj 231 91 expr 1000 / $f1;
#X obj 246 213 *~ 0.99;
#X obj 251 289 *~ 0.25;
#X obj 245 172 delread~ note 20;
#X obj 95 136 osc~ 144;
#X obj 250 247 lop~ 1200;
#X connect 0 0 3 0;
#X connect 0 0 13 0;
#X connect 2 0 9 0;
#X connect 3 0 4 0;
#X connect 4 0 5 0;
#X connect 4 1 8 0;
#X connect 5 0 6 0;
#X connect 6 0 7 0;
#X connect 7 0 2 1;
#X connect 8 0 7 0;
#X connect 10 0 16 0;
#X connect 11 0 12 0;
#X connect 11 0 18 1;
#X connect 13 0 10 0;
#X connect 14 0 18 0;
#X connect 15 0 1 0;
#X connect 16 0 14 0;
#X connect 17 0 2 0;
#X connect 18 0 15 0;
#X connect 18 0 9 0;
