#N canvas 88 92 881 803 10;
#X msg 301 73 devices;
#X floatatom 160 172 5 0 0 0 - - -, f 5;
#X obj 174 602 dac~;
#X msg 365 75 open 6;
#X msg 422 76 close 6;
#X obj 338 104 comport 6 9600;
#X obj 315 162 expr $f1 < 100;
#X floatatom 256 250 1 0 0 0 - - -, f 1;
#X floatatom 110 294 5 0 0 0 - - -, f 5;
#X floatatom 211 324 5 0 0 0 - - -, f 5;
#X obj 110 272 spigot;
#X obj 211 302 spigot 1;
#X obj 256 280 == 0;
#N canvas 520 260 616 581 note2 1;
#X obj 223 177 + 0;
#X obj 179 284 phasor~;
#X obj 178 311 bp~ 650 120;
#X obj 262 440 *~;
#X msg 315 274 10 1000 \, 0.5 50 450 \, 0 1000 100;
#X obj 221 208 mtof;
#X floatatom 103 199 5 0 0 0 - - -, f 5;
#X obj 318 308 vline~;
#X obj 250 294 osc~;
#X obj 195 23 inlet;
#X obj 260 479 outlet~;
#X obj 191 49 sel 105 110 115 120 125 127;
#X msg 135 127 45;
#X msg 171 123 46;
#X msg 202 123 47;
#X msg 234 124 48;
#X msg 266 125 49;
#X msg 301 126 50;
#X msg 332 127 51;
#X connect 0 0 5 0;
#X connect 0 0 6 0;
#X connect 1 0 2 0;
#X connect 2 0 3 0;
#X connect 3 0 10 0;
#X connect 4 0 7 0;
#X connect 5 0 1 0;
#X connect 5 0 4 0;
#X connect 5 0 8 0;
#X connect 7 0 3 1;
#X connect 8 0 3 0;
#X connect 9 0 11 0;
#X connect 11 0 12 0;
#X connect 11 1 13 0;
#X connect 11 2 14 0;
#X connect 11 3 15 0;
#X connect 11 4 16 0;
#X connect 11 5 17 0;
#X connect 11 6 18 0;
#X connect 12 0 0 0;
#X connect 13 0 0 0;
#X connect 14 0 0 0;
#X connect 15 0 0 0;
#X connect 16 0 0 0;
#X connect 17 0 0 0;
#X connect 18 0 0 0;
#X restore 216 400 pd note2;
#N canvas 891 171 884 787 note1 1;
#X msg 125 123 56;
#X msg 161 123 57;
#X msg 192 123 58;
#X msg 224 124 59;
#X msg 256 125 60;
#X msg 291 126 61;
#X msg 322 127 62;
#X obj 213 177 + 0;
#X obj 469 512 phasor~;
#X obj 466 551 bp~ 650 120;
#X obj 406 680 *~;
#X msg 600 520 10 1000 \, 0.5 50 450 \, 0 1000 100;
#X obj 211 208 mtof;
#X floatatom 93 199 5 0 0 0 - - -, f 5;
#X obj 605 562 vline~;
#X obj 549 553 osc~;
#X obj 211 14 inlet;
#X obj 261 726 outlet~;
#X obj 172 49 sel 50 55 60 65 70 75 80;
#X obj 386 223 key;
#X obj 383 261 sel 113 97;
#X obj 389 368 tgl 15 0 empty empty empty 17 7 0 10 -262144 -1 -1 1
1;
#X obj 417 369 tgl 15 0 empty empty empty 17 7 0 10 -262144 -1 -1 0
1;
#X floatatom 221 550 5 0 0 0 - - -, f 5;
#X obj 202 624 lop~;
#X obj 98 477 vsl 15 128 1200 2500 0 0 empty empty empty 0 -9 0 10
-262144 -1 -1 3000 1;
#X floatatom 84 620 5 0 0 0 - - -, f 5;
#X obj 219 513 expr 1000 / $f1;
#X floatatom 209 250 5 0 0 0 - - -, f 5;
#X obj 519 440 spigot;
#X obj 297 411 == 1;
#X floatatom 259 476 5 0 0 0 - - -, f 5;
#X obj 241 448 spigot 1;
#X obj 409 401 == 1;
#X obj 66 292 noise~;
#X obj 79 319 *~;
#X obj 119 233 bng 15 250 50 0 empty empty empty 17 7 0 10 -262144
-1 -1;
#X obj 119 256 t b b;
#X obj 118 282 del 30;
#X msg 117 308 0;
#X obj 120 336 tgl 15 0 empty empty empty 17 7 0 10 -262144 -1 -1 0
1;
#X msg 182 288 1;
#X obj 77 379 delwrite~ note 500;
#X obj 227 590 delread4~ note 20;
#X obj 249 625 *~ 0.99;
#X obj 201 661 *~ 0.25;
#X text 409 243 Q;
#X text 434 242 A;
#X connect 0 0 7 0;
#X connect 1 0 7 0;
#X connect 2 0 7 0;
#X connect 3 0 7 0;
#X connect 4 0 7 0;
#X connect 5 0 7 0;
#X connect 6 0 7 0;
#X connect 7 0 12 0;
#X connect 7 0 13 0;
#X connect 8 0 9 0;
#X connect 9 0 10 0;
#X connect 10 0 17 0;
#X connect 11 0 14 0;
#X connect 12 0 28 0;
#X connect 14 0 10 1;
#X connect 15 0 10 0;
#X connect 16 0 18 0;
#X connect 18 0 0 0;
#X connect 18 1 1 0;
#X connect 18 2 2 0;
#X connect 18 3 3 0;
#X connect 18 4 4 0;
#X connect 18 5 5 0;
#X connect 18 6 6 0;
#X connect 19 0 20 0;
#X connect 20 0 21 0;
#X connect 20 1 22 0;
#X connect 21 0 30 0;
#X connect 22 0 33 0;
#X connect 23 0 43 0;
#X connect 24 0 42 0;
#X connect 24 0 45 0;
#X connect 25 0 24 1;
#X connect 25 0 26 0;
#X connect 27 0 23 0;
#X connect 28 0 29 0;
#X connect 28 0 32 0;
#X connect 29 0 11 0;
#X connect 29 0 8 0;
#X connect 29 0 15 0;
#X connect 30 0 32 1;
#X connect 32 0 31 0;
#X connect 32 0 27 0;
#X connect 33 0 29 1;
#X connect 34 0 35 0;
#X connect 35 0 42 0;
#X connect 36 0 37 0;
#X connect 37 0 38 0;
#X connect 37 1 41 0;
#X connect 38 0 39 0;
#X connect 39 0 40 0;
#X connect 40 0 35 1;
#X connect 41 0 40 0;
#X connect 43 0 44 0;
#X connect 44 0 24 0;
#X connect 45 0 17 0;
#X restore 101 385 pd note1;
#N canvas 0 0 450 300 tremolo 0;
#X obj 279 19 inlet;
#X obj 119 116 *~;
#X obj 117 17 inlet~;
#X obj 124 229 outlet~;
#X obj 281 59 osc~;
#X obj 278 142 *~ 0.5;
#X obj 281 100 +~ 1;
#X connect 0 0 4 0;
#X connect 1 0 3 0;
#X connect 2 0 1 0;
#X connect 4 0 6 0;
#X connect 5 0 1 1;
#X connect 6 0 5 0;
#X restore 182 522 pd tremolo;
#X obj 373 488 hsl 128 15 0 127 0 0 empty empty empty -2 -8 0 10 -262144
-1 -1 0 1;
#X floatatom 388 533 5 0 0 0 - - -, f 5;
#N canvas 0 0 450 300 (subpatch) 0;
#X array note1 100 float 5 black black;
#A 0 0 0 0 0 0 0 0 0 0 0 0 0 0 0 0 0 0 0 0 0 0 0 0 0 0 0 0 0 0 0 0
0 0 0 0 0 0 0 0 0 0 0 0 0 0 0 0 0 0 0 0 0 0 0 0 0 0 0 0 0 0 0 0 0 0
0 0 0 0 0 0 0 0 0 0 0 0 0 0 0 0 0 0 0 0 0 0 0 0 0 0 0 0 0 0 0 0 0 0
0;
#X coords 0 1 99 -1 200 140 1;
#X restore 637 48 graph;
#N canvas 0 0 450 300 (subpatch) 0;
#X array note2 100 float 5 black black;
#A 0 0 0 0 0 0 0 0 0 0 0 0 0 0 0 0 0 0 0 0 0 0 0 0 0 0 0 0 0 0 0 0
0 0 0 0 0 0 0 0 0 0 0 0 0 0 0 0 0 0 0 0 0 0 0 0 0 0 0 0 0 0 0 0 0 0
0 0 0 0 0 0 0 0 0 0 0 0 0 0 0 0 0 0 0 0 0 0 0 0 0 0 0 0 0 0 0 0 0 0
0;
#X coords 0 1 99 -1 200 140 1;
#X restore 639 209 graph;
#N canvas 0 0 450 300 (subpatch) 0;
#X array filter1 100 float 5 black black;
#A 0 0 0 0 0 0 0 0 0 0 0 0 0 0 0 0 0 0 0 0 0 0 0 0 0 0 0 0 0 0 0 0
0 0 0 0 0 0 0 0 0 0 0 0 0 0 0 0 0 0 0 0 0 0 0 0 0 0 0 0 0 0 0 0 0 0
0 0 0 0 0 0 0 0 0 0 0 0 0 0 0 0 0 0 0 0 0 0 0 0 0 0 0 0 0 0 0 0 0 0
0;
#X coords 0 1 99 -1 200 140 1;
#X restore 638 364 graph;
#X obj 323 642 tabwrite~ note1;
#X obj 324 681 tabwrite~ note2;
#X obj 324 731 tabwrite~ filter1;
#X obj 349 599 metro 100;
#X obj 355 567 tgl 15 0 empty empty empty 17 7 0 10 -262144 -1 -1 1
1;
#X connect 0 0 5 0;
#X connect 1 0 10 0;
#X connect 1 0 11 0;
#X connect 3 0 5 0;
#X connect 4 0 5 0;
#X connect 5 0 6 0;
#X connect 5 0 1 0;
#X connect 6 0 7 0;
#X connect 7 0 10 1;
#X connect 7 0 12 0;
#X connect 8 0 14 0;
#X connect 9 0 13 0;
#X connect 10 0 8 0;
#X connect 11 0 9 0;
#X connect 12 0 11 1;
#X connect 13 0 15 0;
#X connect 13 0 22 0;
#X connect 14 0 15 0;
#X connect 14 0 21 0;
#X connect 15 0 2 0;
#X connect 15 0 2 1;
#X connect 15 0 23 0;
#X connect 16 0 15 1;
#X connect 16 0 17 0;
#X connect 24 0 21 0;
#X connect 24 0 22 0;
#X connect 24 0 23 0;
#X connect 25 0 24 0;
