#N canvas 198 78 431 620 10;
#X msg -117 23 devices;
#X floatatom -80 116 5 0 0 0 - - -;
#X obj -80 365 dac~;
#X msg -53 25 open 6;
#X msg 4 26 close 6;
#X obj -79 71 comport 6 9600;
#X obj -78 151 hsl 128 15 0 127 0 0 empty empty empty -2 -8 0 10 -262144
-1 -1 1000 1;
#X obj -80 189 * 1000;
#X obj -80 217 sig~;
#X obj -89 261 phasor~;
#X obj -81 328 hip~ 5;
#X connect 0 0 5 0;
#X connect 1 0 6 0;
#X connect 3 0 5 0;
#X connect 4 0 5 0;
#X connect 5 0 1 0;
#X connect 6 0 7 0;
#X connect 7 0 8 0;
#X connect 8 0 9 0;
#X connect 9 0 10 0;
#X connect 10 0 2 0;
#X connect 10 0 2 1;
