#N canvas 206 0 1020 971 10;
#X msg 22 53 devices;
#X floatatom 44 165 5 0 0 0 - - -;
#X obj 100 883 dac~;
#X msg 86 55 open 6;
#X msg 191 54 close 6;
#X obj 45 84 comport 6 9600;
#X obj 113 188 expr $f1 < 100;
#X floatatom 109 240 1 0 0 0 - - -;
#X floatatom 37 274 5 0 0 0 - - -;
#X floatatom 64 318 5 0 0 0 - - -;
#X obj 42 244 spigot;
#X obj 64 296 spigot 1;
#X obj 109 274 == 0;
#N canvas 0 0 685 481 note2 0;
#X obj 223 177 + 0;
#X obj 221 208 mtof;
#X floatatom 103 199 5 0 0 0 - - -;
#X obj 195 23 inlet;
#X obj 242 444 outlet~;
#X msg 94 121 45;
#X msg 130 117 46;
#X msg 161 117 47;
#X msg 193 118 48;
#X msg 225 119 49;
#X msg 260 120 50;
#X msg 291 121 51;
#X floatatom 221 238 5 0 0 0 - - -;
#X obj 277 313 spigot;
#X obj 353 254 == 1;
#X floatatom 204 338 5 0 0 0 - - -;
#X obj 185 308 spigot 1;
#X obj 439 272 == 1;
#X obj 346 200 inlet;
#X obj 430 231 inlet;
#X obj 178 381 guitar;
#X obj 275 376 flute;
#X obj 191 49 sel 101 102 103 104 105 106 107 108 109 110;
#X msg 329 117 52;
#X msg 360 118 53;
#X msg 405 124 54;
#X msg 437 123 55;
#X connect 0 0 1 0;
#X connect 0 0 2 0;
#X connect 1 0 12 0;
#X connect 3 0 22 0;
#X connect 5 0 0 0;
#X connect 6 0 0 0;
#X connect 7 0 0 0;
#X connect 8 0 0 0;
#X connect 9 0 0 0;
#X connect 10 0 0 0;
#X connect 11 0 0 0;
#X connect 12 0 13 0;
#X connect 12 0 16 0;
#X connect 13 0 21 0;
#X connect 14 0 16 1;
#X connect 15 0 20 0;
#X connect 16 0 15 0;
#X connect 17 0 13 1;
#X connect 18 0 14 0;
#X connect 19 0 17 0;
#X connect 20 0 4 0;
#X connect 21 0 4 0;
#X connect 22 0 5 0;
#X connect 22 1 6 0;
#X connect 22 2 7 0;
#X connect 22 3 8 0;
#X connect 22 4 9 0;
#X connect 22 5 10 0;
#X connect 22 6 11 0;
#X connect 22 7 23 0;
#X connect 22 8 24 0;
#X connect 22 9 25 0;
#X connect 22 10 26 0;
#X connect 23 0 0 0;
#X connect 24 0 0 0;
#X connect 25 0 0 0;
#X connect 26 0 0 0;
#X restore 144 359 pd note2;
#N canvas 0 0 1920 976 note1 0;
#X obj 213 177 + 0;
#X obj 211 208 mtof;
#X floatatom 93 199 5 0 0 0 - - -;
#X obj 211 14 inlet;
#X obj 248 450 outlet~;
#X floatatom 209 250 5 0 0 0 - - -;
#X obj 265 325 spigot;
#X obj 341 266 == 1;
#X floatatom 192 350 5 0 0 0 - - -;
#X obj 173 320 spigot 1;
#X obj 427 284 == 1;
#X obj 342 217 inlet;
#X obj 443 233 inlet;
#X obj 185 385 guitar;
#X obj 281 369 flute;
#X obj 172 49 sel 150 151 152 153 153 154 155 156 157 158 159;
#X msg 393 121 62;
#X msg 125 122 54;
#X msg 161 122 55;
#X msg 194 123 56;
#X msg 224 124 57;
#X msg 256 125 58;
#X msg 291 126 59;
#X msg 322 127 60;
#X msg 357 122 61;
#X msg 429 121 63;
#X msg 468 121 64;
#X msg 498 124 65;
#X connect 0 0 1 0;
#X connect 0 0 2 0;
#X connect 1 0 5 0;
#X connect 3 0 15 0;
#X connect 5 0 6 0;
#X connect 5 0 9 0;
#X connect 6 0 14 0;
#X connect 7 0 9 1;
#X connect 8 0 13 0;
#X connect 9 0 8 0;
#X connect 10 0 6 1;
#X connect 11 0 7 0;
#X connect 12 0 10 0;
#X connect 13 0 4 0;
#X connect 14 0 4 0;
#X connect 15 0 17 0;
#X connect 15 1 18 0;
#X connect 15 2 19 0;
#X connect 15 3 20 0;
#X connect 15 4 21 0;
#X connect 15 5 22 0;
#X connect 15 6 23 0;
#X connect 15 7 24 0;
#X connect 15 8 16 0;
#X connect 15 9 25 0;
#X connect 15 10 26 0;
#X connect 15 11 27 0;
#X connect 16 0 0 0;
#X connect 17 0 0 0;
#X connect 18 0 0 0;
#X connect 19 0 0 0;
#X connect 20 0 0 0;
#X connect 21 0 0 0;
#X connect 22 0 0 0;
#X connect 23 0 0 0;
#X connect 24 0 0 0;
#X connect 25 0 0 0;
#X connect 26 0 0 0;
#X connect 27 0 0 0;
#X restore 42 431 pd note1;
#N canvas 0 22 450 300 tremolo 0;
#X obj 279 19 inlet;
#X obj 119 116 *~;
#X obj 117 17 inlet~;
#X obj 124 229 outlet~;
#X obj 281 59 osc~;
#X obj 278 142 *~ 0.5;
#X obj 281 100 +~ 1;
#X connect 0 0 4 0;
#X connect 1 0 3 0;
#X connect 2 0 1 0;
#X connect 4 0 6 0;
#X connect 5 0 1 1;
#X connect 6 0 5 0;
#X restore 157 658 pd tremolo;
#X obj 225 582 hsl 128 15 0 127 0 0 empty empty empty -2 -8 0 10 -262144
-1 -1 0 1;
#X floatatom 230 609 5 0 0 0 - - -;
#N canvas 0 22 450 300 (subpatch) 0;
#X array filter1 100 float 5;
#A 0 0 0 0 0 0 0 0 0 0 0 0 0 0 0 0 0 0 0 0 0 0 0 0 0 0 0 0 0 0 0 0
0 0 0 0 0 0 0 0 0 0 0 0 0 0 0 0 0 0 0 0 0 0 0 0 0 0 0 0 0 0 0 0 0 0
0 0 0 0 0 0 0 0 0 0 0 0 0 0 0 0 0 0 0 0 0 0 0 0 0 0 0 0 0 0 0 0 0 0
0;
#X coords 0 1 99 -1 200 140 1;
#X restore 734 345 graph;
#X obj 539 552 tabwrite~ filter1;
#X obj 564 420 metro 100;
#X obj 570 388 tgl 15 0 empty empty Graphs 17 7 0 10 -262144 -1 -1
0 1;
#X obj 47 132 hsl 128 16 0 210 0 0 empty empty empty -2 -8 0 10 -262144
-1 -1 0 1;
#N canvas 0 22 450 300 (subpatch) 0;
#X array note3 100 float 5;
#A 0 0 0 0 0 0 0 0 0 0 0 0 0 0 0 0 0 0 0 0 0 0 0 0 0 0 0 0 0 0 0 0
0 0 0 0 0 0 0 0 0 0 0 0 0 0 0 0 0 0 0 0 0 0 0 0 0 0 0 0 0 0 0 0 0 0
0 0 0 0 0 0 0 0 0 0 0 0 0 0 0 0 0 0 0 0 0 0 0 0 0 0 0 0 0 0 0 0 0 0
0;
#X coords 0 1 99 -1 200 140 1;
#X restore 733 16 graph;
#X obj 538 463 tabwrite~ note3;
#N canvas 0 22 450 300 (subpatch) 0;
#X array notes4 100 float 5;
#A 0 0 0 0 0 0 0 0 0 0 0 0 0 0 0 0 0 0 0 0 0 0 0 0 0 0 0 0 0 0 0 0
0 0 0 0 0 0 0 0 0 0 0 0 0 0 0 0 0 0 0 0 0 0 0 0 0 0 0 0 0 0 0 0 0 0
0 0 0 0 0 0 0 0 0 0 0 0 0 0 0 0 0 0 0 0 0 0 0 0 0 0 0 0 0 0 0 0 0 0
0;
#X coords 0 1 99 -1 200 140 1;
#X restore 734 180 graph;
#N canvas 0 22 450 300 (subpatch) 0;
#X array array3 100 float 5;
#A 0 0 0 0 0 0 0 0 0 0 0 0 0 0 0 0 0 0 0 0 0 0 0 0 0 0 0 0 0 0 0 0
0 0 0 0 0 0 0 0 0 0 0 0 0 0 0 0 0 0 0 0 0 0 0 0 0 0 0 0 0 0 0 0 0 0
0 0 0 0 0 0 0 0 0 0 0 0 0 0 0 0 0 0 0 0 0 0 0 0 0 0 0 0 0 0 0 0 0 0
0;
#X coords 0 1 99 -1 200 140 1;
#X restore 733 509 graph;
#X obj 540 588 tabwrite~ array3;
#N canvas 0 22 450 300 reverbAndDelay 0;
#X obj 32 158 freeverb~;
#X msg 291 59 wet \$1;
#X obj 289 93 hsl 36 24 0 1 0 0 empty empty empty -2 -8 0 10 -262144
-1 -1 0 1;
#X msg 289 131 dry \$1;
#X obj 287 159 hsl 36 24 0 1 0 0 empty empty empty -2 -8 0 10 -262144
-1 -1 0 1;
#X msg 287 192 roomsize \$1;
#X obj 226 283 delwrite~ delayLeft 4000;
#X obj 245 234 delwrite~ delayRight 4000;
#X obj 292 29 hsl 36 24 0 1 0 0 empty empty empty -2 -8 0 10 -262144
-1 -1 0 1;
#X obj 15 440 outlet~;
#X obj 75 440 outlet~;
#X obj 17 29 inlet~;
#X obj 118 27 inlet~;
#X obj 217 401 sig~;
#X floatatom 234 362 5 0 0 0 - - -;
#X obj 132 345 sig~;
#X floatatom 155 314 5 0 0 0 - - -;
#X obj 217 425 vd~ delayRight;
#X obj 133 374 vd~ delayLeft;
#X connect 0 0 6 0;
#X connect 0 0 9 0;
#X connect 0 1 7 0;
#X connect 0 1 10 0;
#X connect 1 0 0 0;
#X connect 2 0 3 0;
#X connect 3 0 0 0;
#X connect 4 0 5 0;
#X connect 5 0 0 0;
#X connect 8 0 1 0;
#X connect 11 0 0 0;
#X connect 12 0 0 1;
#X connect 13 0 17 0;
#X connect 14 0 13 0;
#X connect 15 0 18 0;
#X connect 16 0 15 0;
#X connect 17 0 10 0;
#X connect 18 0 9 0;
#X restore 16 679 pd reverbAndDelay;
#X obj 539 502 tabwrite~ notes4;
#X obj 289 222 key;
#X obj 286 260 sel 113 97;
#X obj 303 342 tgl 30 0 empty empty Guitar 35 12 0 10 -236683 -1 -1
1 1;
#X obj 304 295 tgl 29 0 empty empty Flute 31 13 0 10 -117532 -1 -1
0 1;
#X text 312 242 Q;
#X text 337 241 A;
#N canvas 0 0 693 606 control 0;
#X obj 94 27 inlet;
#X obj 122 298 1;
#X obj 163 345 +;
#X msg 170 283 -1;
#X floatatom 41 241 5 0 0 0 - - -;
#X obj 43 269 == 1;
#X floatatom 208 86 5 0 0 0 - - -;
#X obj 172 255 == 1;
#X obj 184 319 inlet;
#X obj 164 381 outlet;
#X obj 25 141 expr $f1 < 206 && $f1 > 200;
#X obj 163 54 expr $f1 > 206;
#X connect 0 0 10 0;
#X connect 0 0 11 0;
#X connect 1 0 2 0;
#X connect 2 0 9 0;
#X connect 3 0 2 0;
#X connect 4 0 5 0;
#X connect 5 0 1 0;
#X connect 6 0 7 0;
#X connect 7 0 3 0;
#X connect 8 0 2 1;
#X connect 10 0 1 0;
#X connect 10 0 4 0;
#X connect 11 0 6 0;
#X restore 181 525 pd control;
#X connect 0 0 5 0;
#X connect 1 0 36 0;
#X connect 1 0 6 0;
#X connect 1 0 10 0;
#X connect 1 0 11 0;
#X connect 3 0 5 0;
#X connect 4 0 5 0;
#X connect 5 0 1 0;
#X connect 6 0 7 0;
#X connect 7 0 10 1;
#X connect 7 0 12 0;
#X connect 8 0 14 0;
#X connect 9 0 13 0;
#X connect 9 0 14 0;
#X connect 10 0 8 0;
#X connect 11 0 9 0;
#X connect 12 0 11 1;
#X connect 13 0 15 0;
#X connect 13 0 28 1;
#X connect 13 0 29 0;
#X connect 14 0 15 0;
#X connect 14 0 24 0;
#X connect 14 0 28 0;
#X connect 15 0 2 0;
#X connect 15 0 2 1;
#X connect 15 0 19 0;
#X connect 16 0 15 1;
#X connect 16 0 17 0;
#X connect 16 0 36 1;
#X connect 20 0 19 0;
#X connect 20 0 24 0;
#X connect 20 0 27 0;
#X connect 20 0 29 0;
#X connect 21 0 20 0;
#X connect 28 0 2 0;
#X connect 28 1 2 1;
#X connect 30 0 31 0;
#X connect 31 0 32 0;
#X connect 31 1 33 0;
#X connect 32 0 13 1;
#X connect 32 0 14 1;
#X connect 33 0 13 2;
#X connect 33 0 14 2;
#X connect 36 0 16 0;
