#N canvas 206 23 959 782 10;
#X msg 22 53 devices;
#X floatatom 44 165 5 0 0 0 - - -, f 5;
#X obj 98 618 dac~;
#X msg 86 55 open 6;
#X msg 191 54 close 6;
#X obj 45 84 comport 6 9600;
#X obj 587 44 expr $f1 < 100;
#X floatatom 583 96 1 0 0 0 - - -, f 1;
#X floatatom 511 130 5 0 0 0 - - -, f 5;
#X floatatom 538 174 5 0 0 0 - - -, f 5;
#X obj 516 100 spigot;
#X obj 538 152 spigot 1;
#X obj 583 130 == 0;
#N canvas 860 481 171 96 note2 1;
#X obj 223 177 + 0;
#X obj 221 208 mtof;
#X floatatom 103 199 5 0 0 0 - - -, f 5;
#X obj 195 23 inlet;
#X obj 242 444 outlet~;
#X obj 191 49 sel 105 110 115 120 125 127;
#X msg 135 127 45;
#X msg 171 123 46;
#X msg 202 123 47;
#X msg 234 124 48;
#X msg 266 125 49;
#X msg 301 126 50;
#X msg 332 127 51;
#N canvas 0 22 171 0 guitar1 0;
#X obj 303 11 inlet;
#X obj 318 341 outlet~;
#X obj 163 142 noise~;
#X obj 176 169 *~;
#X obj 215 80 bng 15 250 50 0 empty empty empty 17 7 0 10 -262144 -1
-1;
#X obj 216 106 t b b;
#X obj 215 132 del 30;
#X msg 214 158 0;
#X obj 217 186 tgl 15 0 empty empty empty 17 7 0 10 -262144 -1 -1 0
1;
#X msg 279 138 1;
#X obj 178 285 delwrite~ note 500;
#X floatatom 314 136 5 0 0 0 - - -, f 5;
#X obj 318 253 lop~;
#X obj 439 104 vsl 15 128 1200 2500 0 0 empty empty empty 0 -9 0 10
-262144 -1 -1 0 1;
#X floatatom 425 247 5 0 0 0 - - -, f 5;
#X obj 299 97 expr 1000 / $f1;
#X obj 313 178 delread4~ note 20;
#X obj 314 219 *~ 0.99;
#X obj 319 295 *~ 0.25;
#X connect 0 0 4 0;
#X connect 0 0 15 0;
#X connect 2 0 3 0;
#X connect 3 0 10 0;
#X connect 4 0 5 0;
#X connect 5 0 6 0;
#X connect 5 1 9 0;
#X connect 6 0 7 0;
#X connect 7 0 8 0;
#X connect 8 0 3 1;
#X connect 9 0 8 0;
#X connect 11 0 16 0;
#X connect 12 0 18 0;
#X connect 12 0 10 0;
#X connect 13 0 12 1;
#X connect 13 0 14 0;
#X connect 15 0 11 0;
#X connect 16 0 17 0;
#X connect 17 0 12 0;
#X connect 18 0 1 0;
#X restore 187 375 pd guitar1;
#N canvas 0 22 171 0 flute1 0;
#X obj 105 71 phasor~;
#X obj 102 110 bp~ 650 120;
#X obj 169 163 *~;
#X msg 236 79 10 1000 \, 0.5 50 450 \, 0 1000 100;
#X obj 241 121 vline~;
#X obj 185 112 osc~;
#X obj 157 29 inlet;
#X obj 168 206 outlet~;
#X connect 0 0 1 0;
#X connect 1 0 2 0;
#X connect 2 0 7 0;
#X connect 3 0 4 0;
#X connect 4 0 2 1;
#X connect 5 0 2 0;
#X connect 6 0 0 0;
#X connect 6 0 5 0;
#X connect 6 0 3 0;
#X restore 275 376 pd flute1;
#X floatatom 221 238 5 0 0 0 - - -, f 5;
#X obj 277 313 spigot;
#X obj 353 254 == 1;
#X floatatom 204 338 5 0 0 0 - - -, f 5;
#X obj 185 308 spigot 1;
#X obj 439 272 == 1;
#X obj 414 49 key;
#X obj 411 87 sel 113 97;
#X obj 417 194 tgl 15 0 empty empty empty 17 7 0 10 -262144 -1 -1 0
1;
#X obj 445 195 tgl 15 0 empty empty empty 17 7 0 10 -262144 -1 -1 0
1;
#X text 437 69 Q;
#X text 462 68 A;
#X obj 346 200 inlet;
#X obj 430 231 inlet;
#X connect 0 0 1 0;
#X connect 0 0 2 0;
#X connect 1 0 15 0;
#X connect 3 0 5 0;
#X connect 5 0 6 0;
#X connect 5 1 7 0;
#X connect 5 2 8 0;
#X connect 5 3 9 0;
#X connect 5 4 10 0;
#X connect 5 5 11 0;
#X connect 5 6 12 0;
#X connect 6 0 0 0;
#X connect 7 0 0 0;
#X connect 8 0 0 0;
#X connect 9 0 0 0;
#X connect 10 0 0 0;
#X connect 11 0 0 0;
#X connect 12 0 0 0;
#X connect 13 0 4 0;
#X connect 14 0 4 0;
#X connect 15 0 16 0;
#X connect 15 0 19 0;
#X connect 16 0 14 0;
#X connect 17 0 19 1;
#X connect 19 0 18 0;
#X connect 19 0 13 0;
#X connect 20 0 16 1;
#X connect 21 0 22 0;
#X connect 22 0 23 0;
#X connect 22 1 24 0;
#X connect 27 0 17 0;
#X connect 28 0 20 0;
#X restore 116 201 pd note2;
#N canvas 846 113 574 541 note1 1;
#X msg 125 123 56;
#X msg 161 123 57;
#X msg 192 123 58;
#X msg 224 124 59;
#X msg 256 125 60;
#X msg 291 126 61;
#X msg 322 127 62;
#X obj 213 177 + 0;
#X obj 211 208 mtof;
#X floatatom 93 199 5 0 0 0 - - -, f 5;
#X obj 211 14 inlet;
#X obj 248 450 outlet~;
#X obj 172 49 sel 50 55 60 65 70 75 80;
#X floatatom 209 250 5 0 0 0 - - -, f 5;
#X obj 265 325 spigot;
#X obj 341 266 == 1;
#X floatatom 192 350 5 0 0 0 - - -, f 5;
#X obj 173 320 spigot 1;
#X obj 427 284 == 1;
#N canvas -32000 -32000 171 0 guitar 1;
#X obj 267 25 inlet;
#X obj 296 310 outlet~;
#X obj 137 118 noise~;
#X obj 150 145 *~;
#X obj 189 56 bng 15 250 50 0 empty empty empty 17 7 0 10 -262144 -1
-1;
#X obj 190 82 t b b;
#X obj 189 108 del 30;
#X msg 188 134 0;
#X obj 191 162 tgl 15 0 empty empty empty 17 7 0 10 -262144 -1 -1 0
1;
#X msg 253 114 1;
#X floatatom 288 112 5 0 0 0 - - -, f 5;
#X obj 292 229 lop~;
#X obj 413 80 vsl 15 128 1200 2500 0 0 empty empty empty 0 -9 0 10
-262144 -1 -1 0 1;
#X floatatom 399 223 5 0 0 0 - - -, f 5;
#X obj 273 73 expr 1000 / $f1;
#X obj 288 195 *~ 0.99;
#X obj 293 271 *~ 0.25;
#X obj 152 261 delwrite~ notes 500;
#X obj 287 154 delread4~ notes 20;
#X connect 0 0 4 0;
#X connect 0 0 14 0;
#X connect 2 0 3 0;
#X connect 3 0 17 0;
#X connect 4 0 5 0;
#X connect 5 0 6 0;
#X connect 5 1 9 0;
#X connect 6 0 7 0;
#X connect 7 0 8 0;
#X connect 8 0 3 1;
#X connect 9 0 8 0;
#X connect 10 0 18 0;
#X connect 11 0 16 0;
#X connect 11 0 17 0;
#X connect 12 0 11 1;
#X connect 12 0 13 0;
#X connect 14 0 10 0;
#X connect 15 0 11 0;
#X connect 16 0 1 0;
#X connect 18 0 15 0;
#X restore 169 378 pd guitar;
#N canvas 0 22 171 0 flute 0;
#X obj 167 61 phasor~;
#X obj 164 100 bp~ 650 120;
#X obj 231 153 *~;
#X msg 298 69 10 1000 \, 0.5 50 450 \, 0 1000 100;
#X obj 303 111 vline~;
#X obj 247 102 osc~;
#X obj 219 19 inlet;
#X obj 230 196 outlet~;
#X connect 0 0 1 0;
#X connect 1 0 2 0;
#X connect 2 0 7 0;
#X connect 3 0 4 0;
#X connect 4 0 2 1;
#X connect 5 0 2 0;
#X connect 6 0 0 0;
#X connect 6 0 5 0;
#X connect 6 0 3 0;
#X restore 281 369 pd flute;
#X obj 342 217 inlet;
#X obj 443 233 inlet;
#X connect 0 0 7 0;
#X connect 1 0 7 0;
#X connect 2 0 7 0;
#X connect 3 0 7 0;
#X connect 4 0 7 0;
#X connect 5 0 7 0;
#X connect 6 0 7 0;
#X connect 7 0 8 0;
#X connect 7 0 9 0;
#X connect 8 0 13 0;
#X connect 10 0 12 0;
#X connect 12 0 0 0;
#X connect 12 1 1 0;
#X connect 12 2 2 0;
#X connect 12 3 3 0;
#X connect 12 4 4 0;
#X connect 12 5 5 0;
#X connect 12 6 6 0;
#X connect 13 0 14 0;
#X connect 13 0 17 0;
#X connect 14 0 20 0;
#X connect 15 0 17 1;
#X connect 17 0 16 0;
#X connect 17 0 19 0;
#X connect 18 0 14 1;
#X connect 19 0 11 0;
#X connect 20 0 11 0;
#X connect 21 0 15 0;
#X connect 22 0 18 0;
#X restore 20 236 pd note1;
#N canvas 0 22 450 300 tremolo 0;
#X obj 279 19 inlet;
#X obj 119 116 *~;
#X obj 117 17 inlet~;
#X obj 124 229 outlet~;
#X obj 281 59 osc~;
#X obj 278 142 *~ 0.5;
#X obj 281 100 +~ 1;
#X connect 0 0 4 0;
#X connect 1 0 3 0;
#X connect 2 0 1 0;
#X connect 4 0 6 0;
#X connect 5 0 1 1;
#X connect 6 0 5 0;
#X restore 194 498 pd tremolo;
#X obj 308 463 hsl 128 15 0 127 0 0 empty empty empty -2 -8 0 10 -262144
-1 -1 0 1;
#X floatatom 313 490 5 0 0 0 - - -, f 5;
#N canvas 0 22 450 300 (subpatch) 0;
#X array filter1 100 float 5 black black;
#A 0 0 0 0 0 0 0 0 0 0 0 0 0 0 0 0 0 0 0 0 0 0 0 0 0 0 0 0 0 0 0 0
0 0 0 0 0 0 0 0 0 0 0 0 0 0 0 0 0 0 0 0 0 0 0 0 0 0 0 0 0 0 0 0 0 0
0 0 0 0 0 0 0 0 0 0 0 0 0 0 0 0 0 0 0 0 0 0 0 0 0 0 0 0 0 0 0 0 0 0
0;
#X coords 0 1 99 -1 200 140 1;
#X restore 724 355 graph;
#X obj 539 552 tabwrite~ filter1;
#X obj 564 420 metro 100;
#X obj 570 388 tgl 15 0 empty empty Graphs 17 7 0 10 -262144 -1 -1
0 1;
#X obj 47 132 hsl 128 16 0 300 0 0 empty empty empty -2 -8 0 10 -262144
-1 -1 0 1;
#N canvas 0 22 450 300 (subpatch) 0;
#X array note3 100 float 5 black black;
#A 0 0 0 0 0 0 0 0 0 0 0 0 0 0 0 0 0 0 0 0 0 0 0 0 0 0 0 0 0 0 0 0
0 0 0 0 0 0 0 0 0 0 0 0 0 0 0 0 0 0 0 0 0 0 0 0 0 0 0 0 0 0 0 0 0 0
0 0 0 0 0 0 0 0 0 0 0 0 0 0 0 0 0 0 0 0 0 0 0 0 0 0 0 0 0 0 0 0 0 0
0;
#X coords 0 1 99 -1 200 140 1;
#X restore 723 26 graph;
#X obj 538 463 tabwrite~ note3;
#N canvas 0 22 450 300 (subpatch) 0;
#X array notes4 100 float 5 black black;
#A 0 0 0 0 0 0 0 0 0 0 0 0 0 0 0 0 0 0 0 0 0 0 0 0 0 0 0 0 0 0 0 0
0 0 0 0 0 0 0 0 0 0 0 0 0 0 0 0 0 0 0 0 0 0 0 0 0 0 0 0 0 0 0 0 0 0
0 0 0 0 0 0 0 0 0 0 0 0 0 0 0 0 0 0 0 0 0 0 0 0 0 0 0 0 0 0 0 0 0 0
0;
#X coords 0 1 99 -1 200 140 1;
#X restore 724 190 graph;
#N canvas 0 22 450 300 (subpatch) 0;
#X array array3 100 float 5 black black;
#A 0 0 0 0 0 0 0 0 0 0 0 0 0 0 0 0 0 0 0 0 0 0 0 0 0 0 0 0 0 0 0 0
0 0 0 0 0 0 0 0 0 0 0 0 0 0 0 0 0 0 0 0 0 0 0 0 0 0 0 0 0 0 0 0 0 0
0 0 0 0 0 0 0 0 0 0 0 0 0 0 0 0 0 0 0 0 0 0 0 0 0 0 0 0 0 0 0 0 0 0
0;
#X coords 0 1 99 -1 200 140 1;
#X restore 723 519 graph;
#X obj 540 588 tabwrite~ array3;
#N canvas 0 22 450 300 reverbAndDelay 0;
#X obj 32 158 freeverb~;
#X msg 291 59 wet \$1;
#X obj 289 93 hsl 36 24 0 1 0 0 empty empty empty -2 -8 0 10 -262144
-1 -1 0 1;
#X msg 289 131 dry \$1;
#X obj 287 159 hsl 36 24 0 1 0 0 empty empty empty -2 -8 0 10 -262144
-1 -1 0 1;
#X msg 287 192 roomsize \$1;
#X obj 226 283 delwrite~ delayLeft 4000;
#X obj 245 234 delwrite~ delayRight 4000;
#X obj 292 29 hsl 36 24 0 1 0 0 empty empty empty -2 -8 0 10 -262144
-1 -1 0 1;
#X obj 15 440 outlet~;
#X obj 75 440 outlet~;
#X obj 17 29 inlet~;
#X obj 118 27 inlet~;
#X obj 217 401 sig~;
#X floatatom 234 362 5 0 0 0 - - -, f 5;
#X obj 132 345 sig~;
#X floatatom 155 314 5 0 0 0 - - -, f 5;
#X obj 217 425 vd~ delayRight;
#X obj 133 374 vd~ delayLeft;
#X connect 0 0 6 0;
#X connect 0 0 9 0;
#X connect 0 1 7 0;
#X connect 0 1 10 0;
#X connect 1 0 0 0;
#X connect 2 0 3 0;
#X connect 3 0 0 0;
#X connect 4 0 5 0;
#X connect 5 0 0 0;
#X connect 8 0 1 0;
#X connect 11 0 0 0;
#X connect 12 0 0 1;
#X connect 13 0 17 0;
#X connect 14 0 13 0;
#X connect 15 0 18 0;
#X connect 16 0 15 0;
#X connect 17 0 10 0;
#X connect 18 0 9 0;
#X restore 31 497 pd reverbAndDelay;
#X obj 539 502 tabwrite~ notes4;
#X obj 275 110 key;
#X obj 272 148 sel 113 97;
#X obj 291 235 tgl 30 0 empty empty Guitar 35 12 0 10 -236683 -1 -1
0 1;
#X obj 294 188 tgl 29 0 empty empty Flute 31 13 0 10 -117532 -1 -1
0 1;
#X text 298 130 Q;
#X text 323 129 A;
#N canvas -32000 -32000 171 0 control 1;
#X obj 94 27 inlet;
#X obj 24 141 expr $f1 < 250 && $f1 > 199;
#X obj 163 56 expr $f1 > 250;
#X obj 122 298 1;
#X obj 163 345 +;
#X msg 170 283 -1;
#X floatatom 41 241 5 0 0 0 - - -, f 5;
#X obj 43 269 == 1;
#X floatatom 208 86 5 0 0 0 - - -, f 5;
#X obj 172 255 == 1;
#X obj 184 319 inlet;
#X obj 164 381 outlet;
#X connect 0 0 1 0;
#X connect 0 0 2 0;
#X connect 1 0 3 0;
#X connect 1 0 6 0;
#X connect 2 0 8 0;
#X connect 3 0 4 0;
#X connect 4 0 11 0;
#X connect 5 0 4 0;
#X connect 6 0 7 0;
#X connect 7 0 3 0;
#X connect 8 0 9 0;
#X connect 9 0 5 0;
#X connect 10 0 4 1;
#X restore 232 420 pd control;
#X connect 0 0 5 0;
#X connect 1 0 14 0;
#X connect 1 0 13 0;
#X connect 1 0 36 0;
#X connect 3 0 5 0;
#X connect 4 0 5 0;
#X connect 5 0 22 0;
#X connect 6 0 7 0;
#X connect 7 0 10 1;
#X connect 7 0 12 0;
#X connect 10 0 8 0;
#X connect 11 0 9 0;
#X connect 12 0 11 1;
#X connect 13 0 15 0;
#X connect 13 0 28 1;
#X connect 13 0 29 0;
#X connect 14 0 15 0;
#X connect 14 0 24 0;
#X connect 14 0 28 0;
#X connect 15 0 2 0;
#X connect 15 0 2 1;
#X connect 15 0 19 0;
#X connect 16 0 15 1;
#X connect 16 0 17 0;
#X connect 16 0 36 1;
#X connect 20 0 19 0;
#X connect 20 0 24 0;
#X connect 20 0 27 0;
#X connect 20 0 29 0;
#X connect 21 0 20 0;
#X connect 22 0 1 0;
#X connect 28 0 2 0;
#X connect 28 1 2 1;
#X connect 30 0 31 0;
#X connect 31 0 32 0;
#X connect 31 1 33 0;
#X connect 32 0 13 1;
#X connect 32 0 14 1;
#X connect 33 0 13 2;
#X connect 33 0 14 2;
#X connect 36 0 16 0;
