#N canvas 198 78 578 690 10;
#X msg -117 23 devices;
#X floatatom -80 116 5 0 0 0 - - -, f 5;
#X obj -80 365 dac~;
#X msg -53 25 open 6;
#X msg 4 26 close 6;
#X obj -79 71 comport 6 9600;
#X obj -78 151 hsl 128 15 0 127 0 0 empty empty empty -2 -8 0 10 -262144
-1 -1 0 1;
#X obj -80 189 * 1000;
#X obj -80 217 sig~;
#X obj -89 261 phasor~;
#X obj -81 328 hip~ 5;
#X msg 100 33 devices;
#X floatatom 96 118 5 0 0 0 - - -, f 5;
#X obj 188 398 dac~;
#X msg 164 35 open 6;
#X msg 221 36 close 6;
#X obj 138 81 comport 6 9600;
#X msg 106 160 56;
#X msg 142 160 57;
#X msg 173 160 58;
#X msg 205 161 59;
#X msg 237 162 60;
#X msg 272 163 61;
#X msg 304 163 62;
#X obj 194 214 + 0;
#X obj 192 291 phasor~;
#X obj 191 318 bp~ 650 120;
#X obj 190 356 *~;
#X msg 299 313 10 1000 \, 0.5 50 450 \, 0 1000 100;
#X obj 193 249 mtof;
#X obj 143 131 sel 30 33 36 40 43 46 50;
#X connect 0 0 5 0;
#X connect 1 0 6 0;
#X connect 3 0 5 0;
#X connect 4 0 5 0;
#X connect 5 0 1 0;
#X connect 6 0 7 0;
#X connect 7 0 8 0;
#X connect 8 0 9 0;
#X connect 9 0 10 0;
#X connect 11 0 16 0;
#X connect 14 0 16 0;
#X connect 15 0 16 0;
#X connect 16 0 12 0;
#X connect 16 0 30 0;
#X connect 17 0 24 0;
#X connect 18 0 24 0;
#X connect 19 0 24 0;
#X connect 20 0 24 0;
#X connect 21 0 24 0;
#X connect 22 0 24 0;
#X connect 23 0 24 0;
#X connect 24 0 29 0;
#X connect 25 0 26 0;
#X connect 26 0 27 0;
#X connect 27 0 13 0;
#X connect 27 0 13 1;
#X connect 28 0 27 1;
#X connect 29 0 25 0;
#X connect 29 0 28 0;
#X connect 30 0 17 0;
#X connect 30 1 18 0;
#X connect 30 2 19 0;
#X connect 30 3 20 0;
#X connect 30 4 21 0;
#X connect 30 5 22 0;
#X connect 30 6 23 0;
