#N canvas -9 -9 1920 976 10;
#X msg 301 73 devices;
#X floatatom 160 172 5 0 0 0 - - -;
#X obj 451 948 dac~;
#X msg 365 75 open 6;
#X msg 422 76 close 6;
#X msg 215 555 56;
#X msg 251 555 57;
#X msg 282 555 58;
#X msg 314 556 59;
#X msg 346 557 60;
#X msg 381 558 61;
#X msg 412 559 62;
#X obj 303 609 + 0;
#X obj 259 716 phasor~;
#X obj 258 743 bp~ 650 120;
#X obj 342 872 *~;
#X msg 395 706 10 1000 \, 0.5 50 450 \, 0 1000 100;
#X obj 301 640 mtof;
#X floatatom 183 631 5 0 0 0 - - -;
#X obj 398 740 vline~;
#X obj 339 750 osc~;
#X obj 338 104 comport 6 9600;
#X obj 315 162 expr $f1 < 100;
#X floatatom 256 250 1 0 0 0 - - -;
#X floatatom 110 294 5 0 0 0 - - -;
#X floatatom 211 324 5 0 0 0 - - -;
#X obj 110 272 spigot;
#X obj 211 302 spigot 1;
#X obj 256 280 == 0;
#X msg 624 576 58;
#X msg 656 577 59;
#X msg 688 578 60;
#X msg 723 579 61;
#X msg 754 580 62;
#X obj 645 630 + 0;
#X obj 601 737 phasor~;
#X obj 600 764 bp~ 650 120;
#X obj 684 893 *~;
#X msg 737 727 10 1000 \, 0.5 50 450 \, 0 1000 100;
#X obj 643 661 mtof;
#X floatatom 525 652 5 0 0 0 - - -;
#X obj 740 761 vline~;
#X obj 672 747 osc~;
#X msg 557 580 56;
#X msg 593 576 57;
#X obj 262 481 sel 210 220 230 240 250 260 270;
#X obj 613 502 sel 15 132 30 40 50 60;
#X connect 0 0 21 0;
#X connect 1 0 26 0;
#X connect 1 0 27 0;
#X connect 3 0 21 0;
#X connect 4 0 21 0;
#X connect 5 0 12 0;
#X connect 6 0 12 0;
#X connect 7 0 12 0;
#X connect 8 0 12 0;
#X connect 9 0 12 0;
#X connect 10 0 12 0;
#X connect 11 0 12 0;
#X connect 12 0 17 0;
#X connect 12 0 18 0;
#X connect 13 0 14 0;
#X connect 14 0 15 0;
#X connect 15 0 2 0;
#X connect 15 0 2 1;
#X connect 16 0 19 0;
#X connect 17 0 13 0;
#X connect 17 0 20 0;
#X connect 17 0 16 0;
#X connect 19 0 15 1;
#X connect 20 0 15 0;
#X connect 21 0 1 0;
#X connect 21 0 22 0;
#X connect 22 0 23 0;
#X connect 23 0 26 1;
#X connect 23 0 28 0;
#X connect 24 0 45 0;
#X connect 25 0 46 0;
#X connect 26 0 24 0;
#X connect 27 0 25 0;
#X connect 28 0 27 1;
#X connect 29 0 34 0;
#X connect 30 0 34 0;
#X connect 31 0 34 0;
#X connect 32 0 34 0;
#X connect 33 0 34 0;
#X connect 34 0 39 0;
#X connect 34 0 40 0;
#X connect 35 0 36 0;
#X connect 36 0 37 0;
#X connect 37 0 2 0;
#X connect 37 0 2 1;
#X connect 38 0 41 0;
#X connect 39 0 35 0;
#X connect 39 0 38 0;
#X connect 39 0 42 0;
#X connect 41 0 37 1;
#X connect 42 0 37 0;
#X connect 43 0 34 0;
#X connect 44 0 34 0;
#X connect 45 0 5 0;
#X connect 45 1 6 0;
#X connect 45 2 7 0;
#X connect 45 3 8 0;
#X connect 45 4 9 0;
#X connect 45 5 10 0;
#X connect 45 6 11 0;
#X connect 46 0 43 0;
#X connect 46 1 44 0;
#X connect 46 2 29 0;
#X connect 46 3 30 0;
#X connect 46 4 31 0;
#X connect 46 5 32 0;
#X connect 46 6 33 0;
